<svg xmlns="http://www.w3.org/2000/svg" width="30" height="31" viewBox="0 0 30 31" fill="none">
  <path d="M10.125 24.2852L15 19.3386L19.875 24.2852L22.5 21.6217L17.625 16.6751L22.5 11.7285L19.875 9.06498L15 14.0116L10.125 9.06498L7.5 11.7285L12.375 16.6751L7.5 21.6217L10.125 24.2852ZM5.625 31C4.59375 31 3.71094 30.6274 2.97656 29.8823C2.24219 29.1371 1.875 28.2413 1.875 27.1949V5.70758H0V1.90253H9.375V0H20.625V1.90253H30V5.70758H28.125V27.1949C28.125 28.2413 27.7578 29.1371 27.0234 29.8823C26.2891 30.6274 25.4062 31 24.375 31H5.625ZM24.375 5.70758H5.625V27.1949H24.375V5.70758Z" fill="black"/>
</svg>