<svg xmlns="http://www.w3.org/2000/svg" width="30" height="30" viewBox="0 0 30 30" fill="none">
  <path d="M183.489 29.2705C186.483 20.0574 199.517 20.0574 202.511 29.2705L234.086 126.45C235.425 130.57 239.264 133.36 243.597 133.36H345.777C355.464 133.36 359.492 145.756 351.655 151.45L268.989 211.51C265.484 214.056 264.018 218.57 265.356 222.69L296.932 319.87C299.926 329.083 289.381 336.744 281.544 331.05L198.878 270.99C195.373 268.444 190.627 268.444 187.122 270.99L104.456 331.05C96.6193 336.744 86.0745 329.083 89.068 319.87L120.644 222.69C121.982 218.57 120.516 214.056 117.011 211.51L34.3451 151.45C26.5079 145.756 30.5357 133.36 40.2229 133.36H142.403C146.736 133.36 150.575 130.57 151.914 126.45L183.489 29.2705Z" fill="black"/>
</svg>
