<svg width="32" height="31" viewBox="0 0 326 311" fill="none" xmlns="http://www.w3.org/2000/svg">
<path d="M153.489 7.27051C156.483 -1.9426 169.517 -1.94261 172.511 7.2705L204.086 104.45C205.425 108.57 209.264 111.36 213.597 111.36H315.777C325.464 111.36 329.492 123.756 321.655 129.45L238.989 189.51C235.484 192.056 234.018 196.57 235.357 200.69L266.932 297.87C269.926 307.083 259.381 314.744 251.544 309.05L168.878 248.99C165.373 246.444 160.627 246.444 157.122 248.99L74.4564 309.05C66.6193 314.744 56.0745 307.083 59.068 297.87L90.6435 200.69C91.9822 196.57 90.5157 192.056 87.0108 189.51L4.34507 129.45C-3.49206 123.756 0.535685 111.36 10.2229 111.36H112.403C116.736 111.36 120.575 108.57 121.914 104.45L153.489 7.27051Z" fill="black"/>
</svg>
