<svg width="32" height="31" viewBox="0 0 380 340" fill="none" xmlns="http://www.w3.org/2000/svg">
<path d="M183.489 29.2705C186.483 20.0574 199.517 20.0574 202.511 29.2705L234.086 126.45C235.425 130.57 239.264 133.36 243.597 133.36H345.777C355.464 133.36 359.492 145.756 351.655 151.45L268.989 211.51C265.484 214.056 264.018 218.57 265.357 222.69L296.932 319.87C299.926 329.083 289.381 336.744 281.544 331.05L198.878 270.99C195.373 268.444 190.627 268.444 187.122 270.99L104.456 331.05C96.6193 336.744 86.0745 329.083 89.068 319.87L120.644 222.69C121.982 218.57 120.516 214.056 117.011 211.51L34.3451 151.45C26.5079 145.756 30.5357 133.36 40.2229 133.36H142.403C146.736 133.36 150.575 130.57 151.914 126.45L183.489 29.2705Z" fill="black"/>
<path d="M189.196 79.7082C190.393 76.023 195.607 76.023 196.804 79.7082L220.166 151.609C220.702 153.257 222.238 154.373 223.97 154.373H299.571C303.446 154.373 305.057 159.331 301.922 161.609L240.76 206.046C239.358 207.065 238.771 208.87 239.307 210.518L262.669 282.419C263.866 286.104 259.648 289.169 256.514 286.891L195.351 242.454C193.949 241.435 192.051 241.435 190.649 242.454L129.486 286.891C126.352 289.169 122.134 286.104 123.331 282.419L146.693 210.518C147.229 208.87 146.642 207.065 145.24 206.046L84.0775 161.609C80.9427 159.331 82.5538 154.373 86.4287 154.373H162.03C163.762 154.373 165.298 153.257 165.834 151.609L189.196 79.7082Z" fill="#FA00FF"/>
</svg>
